<svg xmlns="http://www.w3.org/2000/svg" version="1.1" xmlns:xlink="http://www.w3.org/1999/xlink" xmlns:svgjs="http://svgjs.dev/svgjs" width="1000" height="1102" viewBox="0 0 1000 1102"><g transform="matrix(1,0,0,1,-0.8581524482583518,0.4461538461538339)"><svg viewBox="0 0 224 247" data-background-color="#ffffff" preserveAspectRatio="xMidYMid meet" height="1102" width="1000" xmlns="http://www.w3.org/2000/svg" xmlns:xlink="http://www.w3.org/1999/xlink"><g id="tight-bounds" transform="matrix(1,0,0,1,0.19222614840987262,-0.09999999999999432)"><svg viewBox="0 0 223.61554770318023 247.2" height="247.2" width="223.61554770318023"><g><svg viewBox="0 0 223.61554770318023 247.2" height="247.2" width="223.61554770318023"><g><svg viewBox="0 0 223.61554770318023 247.2" height="247.2" width="223.61554770318023"><g id="textblocktransform"><svg viewBox="0 0 223.61554770318023 247.2" height="247.2" width="223.61554770318023" id="textblock"><g><svg viewBox="0 0 223.61554770318023 247.2" height="247.2" width="223.61554770318023"><g transform="matrix(1,0,0,1,0,0)"><svg width="223.61554770318023" viewBox="2.25 -36.5 38.400001525878906 42.45000076293945" height="247.2" data-palette-color="#755bb4"><path d="M37.5-2.1L31 3.3Q29.45 4.6 27.05 5.28 24.65 5.95 21.4 5.95L21.4 5.95 4.55 5.95Q3.35 5.95 2.8 5.4 2.25 4.85 2.25 3.65L2.25 3.65 2.25-28.75Q2.25-29.4 2.43-29.85 2.6-30.3 2.95-30.6L2.95-30.6 9.4-36.05Q9.65-36.25 10.08-36.38 10.5-36.5 11-36.5L11-36.5 27.85-36.5Q34.4-36.5 37.52-33.85 40.65-31.2 40.65-25.8L40.65-25.8 40.65-10.2Q40.65-7.5 39.85-5.48 39.05-3.45 37.5-2.1L37.5-2.1ZM11 0L27.85 0Q34.1 0 37.13-2.5 40.15-5 40.15-10.2L40.15-10.2 40.15-25.8Q40.15-31 37.13-33.5 34.1-36 27.85-36L27.85-36 11-36Q10.05-36 9.63-35.58 9.2-35.15 9.2-34.2L9.2-34.2 9.2-1.8Q9.2-0.85 9.63-0.43 10.05 0 11 0L11 0ZM26.75-4.5L14.65-4.5 14.65-31.5 26.75-31.5Q29.3-31.5 30.88-30.95 32.45-30.4 33.3-29.48 34.15-28.55 34.45-27.28 34.75-26 34.75-24.55L34.75-24.55 34.75-11.3Q34.75-9.85 34.48-8.6 34.2-7.35 33.35-6.45 32.5-5.55 30.9-5.03 29.3-4.5 26.75-4.5L26.75-4.5ZM26.75-31L26.75-31 15.15-31 15.15-5 26.75-5Q29.15-5 30.63-5.48 32.1-5.95 32.9-6.78 33.7-7.6 33.98-8.78 34.25-9.95 34.25-11.3L34.25-11.3 34.25-24.55Q34.25-25.9 33.95-27.1 33.65-28.3 32.85-29.15 32.05-30 30.58-30.5 29.1-31 26.75-31ZM20.55-9.45L20.55-26.45 26.5-26.45Q27.7-26.45 28.28-25.88 28.85-25.3 28.85-24.05L28.85-24.05 28.85-11.9Q28.85-10.65 28.28-10.05 27.7-9.45 26.5-9.45L26.5-9.45 20.55-9.45ZM21.9-9.95L21.9-18.6Q21.9-19.25 21.7-19.7 21.5-20.15 21.05-20.35L21.05-20.35 21.05-9.95 21.9-9.95Z" opacity="1" transform="matrix(1,0,0,1,0,0)" fill="#755bb4" class="wordmark-text-0" data-fill-palette-color="primary" id="text-0"></path></svg></g></svg></g></svg></g></svg></g></svg></g><defs></defs></svg><rect width="223.61554770318023" height="247.2" fill="none" stroke="none" visibility="hidden"></rect></g></svg></g></svg>