<svg xmlns="http://www.w3.org/2000/svg" version="1.1" xmlns:xlink="http://www.w3.org/1999/xlink" xmlns:svgjs="http://svgjs.dev/svgjs" width="1000" height="623" viewBox="0 0 1000 623"><g transform="matrix(1,0,0,1,-0.6060606060606233,0.2522267206477409)"><svg viewBox="0 0 396 247" data-background-color="#ffffff" preserveAspectRatio="xMidYMid meet" height="623" width="1000" xmlns="http://www.w3.org/2000/svg" xmlns:xlink="http://www.w3.org/1999/xlink"><g id="tight-bounds" transform="matrix(1,0,0,1,0.2400000000000091,-0.09999999999999432)"><svg viewBox="0 0 395.52 247.2" height="247.2" width="395.52"><g><svg></svg></g><g><svg viewBox="0 0 395.52 247.2" height="247.2" width="395.52"><mask id="88eac0e8-7a0b-4da8-9d31-1c422c528a08"><rect width="640" height="400" fill="white"></rect><g transform="matrix(1,0,0,1,125.19135,37.08)"><svg viewBox="0 0 145.13729999999998 173.04" height="173.04" width="145.13729999999998"><g><svg viewBox="0 0 145.13729999999998 173.04" height="173.04" width="145.13729999999998"><g><svg viewBox="0 0 145.13729999999998 173.04" height="173.04" width="145.13729999999998"><g><svg viewBox="0 0 145.13729999999998 173.04" height="173.04" width="145.13729999999998"><g id="SvgjsG1006"><svg viewBox="0 0 145.13729999999998 173.04" height="173.04" width="145.13729999999998" id="SvgjsSvg1005"><g><svg viewBox="0 0 145.13729999999998 173.04" height="173.04" width="145.13729999999998"><g transform="matrix(1,0,0,1,0,0)"><svg width="145.13729999999998" viewBox="-1.7999999999999998 -37 34.55 41" height="173.04" data-palette-color="#9e4690"><path d="M2.2 0L2.2-0.5 2.45-0.5Q2.8-0.5 3.1-0.8 3.4-1.1 3.63-1.5 3.85-1.9 3.95-2.38 4.05-2.85 4.05-3.25L4.05-3.25 4.05-29.9Q4.05-30.25 3.95-30.7 3.85-31.15 3.65-31.55 3.45-31.95 3.15-32.23 2.85-32.5 2.45-32.5L2.45-32.5 2.2-32.5 2.2-33 11.85-33Q15.8-33 18.95-31.63 22.1-30.25 24.28-27.93 26.45-25.6 27.6-22.6 28.75-19.6 28.75-16.35L28.75-16.35Q28.75-13.3 27.65-10.38 26.55-7.45 24.35-5.15 22.15-2.85 18.85-1.43 15.55 0 11.2 0L11.2 0 2.2 0ZM25.35-15.6L25.35-15.6Q25.35-18.8 24.2-21.65 23.05-24.5 20.98-26.63 18.9-28.75 16.07-30 13.25-31.25 9.95-31.25L9.95-31.25 7.4-31.25 7.4-1.75 10.05-1.75Q12.75-1.75 15.48-2.58 18.2-3.4 20.4-5.13 22.6-6.85 23.98-9.45 25.35-12.05 25.35-15.6Z" opacity="1" transform="matrix(1,0,0,1,0,0)" fill="black" class="wordmark-text-0" id="SvgjsPath1004" stroke-width="7" stroke="black" stroke-linejoin="round"></path></svg></g></svg></g></svg></g></svg></g><g></g></svg></g></svg></g></svg></g></mask><g transform="matrix(1,0,0,1,125.19135,37.08)"><svg viewBox="0 0 145.13729999999998 173.04" height="173.04" width="145.13729999999998"><g><svg viewBox="0 0 145.13729999999998 173.04" height="173.04" width="145.13729999999998"><g><svg viewBox="0 0 145.13729999999998 173.04" height="173.04" width="145.13729999999998"><g><svg viewBox="0 0 145.13729999999998 173.04" height="173.04" width="145.13729999999998"><g id="textblocktransform"><svg viewBox="0 0 145.13729999999998 173.04" height="173.04" width="145.13729999999998" id="textblock"><g><svg viewBox="0 0 145.13729999999998 173.04" height="173.04" width="145.13729999999998"><g transform="matrix(1,0,0,1,0,0)"><svg width="145.13729999999998" viewBox="-1.7999999999999998 -37 34.55 41" height="173.04" data-palette-color="#9e4690"><path d="M2.2 0L2.2-0.5 2.45-0.5Q2.8-0.5 3.1-0.8 3.4-1.1 3.63-1.5 3.85-1.9 3.95-2.38 4.05-2.85 4.05-3.25L4.05-3.25 4.05-29.9Q4.05-30.25 3.95-30.7 3.85-31.15 3.65-31.55 3.45-31.95 3.15-32.23 2.85-32.5 2.45-32.5L2.45-32.5 2.2-32.5 2.2-33 11.85-33Q15.8-33 18.95-31.63 22.1-30.25 24.28-27.93 26.45-25.6 27.6-22.6 28.75-19.6 28.75-16.35L28.75-16.35Q28.75-13.3 27.65-10.38 26.55-7.45 24.35-5.15 22.15-2.85 18.85-1.43 15.55 0 11.2 0L11.2 0 2.2 0ZM25.35-15.6L25.35-15.6Q25.35-18.8 24.2-21.65 23.05-24.5 20.98-26.63 18.9-28.75 16.07-30 13.25-31.25 9.95-31.25L9.95-31.25 7.4-31.25 7.4-1.75 10.05-1.75Q12.75-1.75 15.48-2.58 18.2-3.4 20.4-5.13 22.6-6.85 23.98-9.45 25.35-12.05 25.35-15.6Z" opacity="1" transform="matrix(1,0,0,1,0,0)" fill="#9e4690" class="wordmark-text-0" data-fill-palette-color="primary" id="text-0"></path></svg></g></svg></g></svg></g></svg></g><g></g></svg></g></svg></g></svg></g><g mask="url(#88eac0e8-7a0b-4da8-9d31-1c422c528a08)"><g transform="matrix(5.108333333333333, 0, 0, 5.108333333333333, 75.16, 1)"><svg xmlns="http://www.w3.org/2000/svg" xmlns:xlink="http://www.w3.org/1999/xlink" version="1.0" x="0" y="0" viewBox="1 1 48 48" enable-background="new 0 0 50 50" xml:space="preserve" height="48" width="48" class="icon-none" data-fill-palette-color="accent" id="none"><g fill="#8b3c7f" data-fill-palette-color="accent"><g fill="#8b3c7f" data-fill-palette-color="accent"><rect x="1" y="1" fill="#8b3c7f" width="23" height="5" data-fill-palette-color="accent"></rect><rect x="1" y="10" fill="#8b3c7f" width="23" height="5" data-fill-palette-color="accent"></rect><rect x="1" y="19" fill="#8b3c7f" width="23" height="5" data-fill-palette-color="accent"></rect></g><g fill="#8b3c7f" data-fill-palette-color="accent"><rect x="26" y="26" fill="#8b3c7f" width="23" height="5" data-fill-palette-color="accent"></rect><rect x="26" y="35" fill="#8b3c7f" width="23" height="5" data-fill-palette-color="accent"></rect><rect x="26" y="44" fill="#8b3c7f" width="23" height="5" data-fill-palette-color="accent"></rect></g><g fill="#8b3c7f" data-fill-palette-color="accent"><rect x="19" y="26" fill="#8b3c7f" width="5" height="23" data-fill-palette-color="accent"></rect><rect x="10" y="26" fill="#8b3c7f" width="5" height="23" data-fill-palette-color="accent"></rect><rect x="1" y="26" fill="#8b3c7f" width="5" height="23" data-fill-palette-color="accent"></rect></g><g fill="#8b3c7f" data-fill-palette-color="accent"><rect x="44" y="1" fill="#8b3c7f" width="5" height="23" data-fill-palette-color="accent"></rect><rect x="35" y="1" fill="#8b3c7f" width="5" height="23" data-fill-palette-color="accent"></rect><rect x="26" y="1" fill="#8b3c7f" width="5" height="23" data-fill-palette-color="accent"></rect></g></g></svg></g></g></svg></g><defs></defs></svg><rect width="395.52" height="247.2" fill="none" stroke="none" visibility="hidden"></rect></g></svg></g></svg>